<svg width="44" height="18" viewBox="0 0 44 18" fill="none" xmlns="http://www.w3.org/2000/svg">
<path fill-rule="evenodd" clip-rule="evenodd" d="M43.291 7.9223C39.027 5.31116 33.7712 4.05405 29.3273 4.16912L25.612 0.384142C25.1097 -0.127722 24.295 -0.127722 23.7926 0.384142C23.2901 0.896006 23.2901 1.72584 23.7926 2.23771L26.7769 5.27796C25.0004 6.2732 23.2098 6.6581 21.5298 6.68152C20.8104 8.09089 20.2758 9.13679 19.8664 9.9379C19.0195 11.5948 18.7079 12.2046 18.4025 12.8176C18.2246 13.1747 18.0489 13.5328 17.7708 14.0995C17.6238 14.3991 17.4482 14.7571 17.2284 15.2041H26.8972C26.4322 11.4777 29.2901 8.21379 32.9363 8.21379C36.5306 8.21379 39.3859 11.3978 38.9887 15.0966C41.789 14.5603 43.9148 12.0519 43.9148 9.04564C43.9147 8.58568 43.678 8.15927 43.291 7.9223ZM16.258 11.3282C15.1877 9.43727 13.1982 8.21379 10.9791 8.21379C7.38428 8.21379 4.52865 11.3984 4.9268 15.0986C3.09501 14.7516 1.51263 13.5622 0.648502 11.8225C0.428074 11.3786 0.473532 10.8455 0.765664 10.4468L1.72054 9.14394L0.396167 7.84864C-0.355006 7.11413 0.0197228 5.82451 1.03507 5.61786L3.89034 5.03656L3.89042 5.03655L3.8907 5.03649C6.52774 4.49957 7.86781 4.22672 7.93681 4.21473C8.25055 4.06925 9.00636 3.62388 9.00636 2.70894C9.00636 1.97487 9.59877 1.38166 10.3231 1.39861C11.0353 1.4153 11.591 2.06111 11.5788 2.78679C11.5685 3.39739 11.4373 3.93268 11.2311 4.39806C12.8363 4.61213 14.4076 4.99485 15.9301 5.5435L15.2318 3.07112C15.0355 2.3755 15.4299 1.64938 16.1127 1.44929C16.7958 1.2491 17.5084 1.65105 17.7048 2.34675L18.4538 4.9987C18.6906 5.83718 18.602 6.73552 18.2069 7.50952C18.2138 7.49606 17.275 9.33442 16.258 11.3282ZM10.9791 18.0002C12.9212 18.0002 14.4956 16.3962 14.4956 14.4177C14.4956 12.4391 12.9212 10.8352 10.9791 10.8352C9.03692 10.8352 7.4625 12.4391 7.4625 14.4177C7.4625 16.3962 9.03692 18.0002 10.9791 18.0002ZM32.9362 18.0002C34.8783 18.0002 36.4528 16.3962 36.4528 14.4177C36.4528 12.4391 34.8783 10.8352 32.9362 10.8352C30.994 10.8352 29.4196 12.4391 29.4196 14.4177C29.4196 16.3962 30.994 18.0002 32.9362 18.0002Z" fill="#19B89D"/>
</svg>
