<svg width="44" height="20" viewBox="0 0 44 20" fill="none" xmlns="http://www.w3.org/2000/svg">
<path fill-rule="evenodd" clip-rule="evenodd" d="M17.484 5.74112L15.7262 0.000366211H14.6435C12.8228 0.000366211 11.08 0.760786 9.86209 2.08675L6.50514 5.74121H17.484V5.74112ZM28.5629 3.96255L29.2893 5.74154H20.1703L18.4128 0.000366211H22.5907C25.2358 0.000366211 27.5808 1.55583 28.5629 3.96255ZM32.9363 20.0004C34.8784 20.0004 36.4528 18.4578 36.4528 16.555C36.4528 14.6522 34.8784 13.1096 32.9363 13.1096C30.9941 13.1096 29.4197 14.6522 29.4197 16.555C29.4197 18.4578 30.9941 20.0004 32.9363 20.0004ZM28.7555 8.26213H20.4996V9.65507C20.4996 10.3338 19.9673 10.9178 19.2753 10.9498C18.5364 10.9839 17.9265 10.4071 17.9265 9.6907V8.26213H2.30575C1.06578 8.26213 0.00060039 9.23112 0.00060039 10.5046C0.00060039 10.5931 0.00034308 10.6767 0 10.7567H1.42241C2.11517 10.7567 2.71127 11.2783 2.74387 11.9562C2.77869 12.6801 2.18997 13.2777 1.45878 13.2777H0.316663C1.0114 15.2966 2.78632 16.811 4.92671 17.2083C4.52943 13.6511 7.38437 10.5886 10.9792 10.5886C14.6208 10.5886 17.4838 13.7229 17.0182 17.3113H26.8973C26.4323 13.7276 29.2902 10.5886 32.9364 10.5886C36.5307 10.5886 39.386 13.6507 38.9888 17.2079C41.7891 16.6921 43.9149 14.2798 43.9149 11.3886C43.9149 10.4565 43.1949 9.6681 42.2386 9.57499L28.7555 8.26213ZM10.9792 20.0004C12.9213 20.0004 14.4957 18.4578 14.4957 16.555C14.4957 14.6522 12.9213 13.1096 10.9792 13.1096C9.03701 13.1096 7.46259 14.6522 7.46259 16.555C7.46259 18.4578 9.03701 20.0004 10.9792 20.0004Z" fill="#FFD473"/>
</svg>
