<svg width="44" height="24" viewBox="0 0 44 24" fill="none" xmlns="http://www.w3.org/2000/svg">
<path fill-rule="evenodd" clip-rule="evenodd" d="M25.4749 5.69368C28.774 5.69278 28.9453 5.69274 29.1158 5.70425L29.1443 5.70625C29.1719 5.70822 29.2036 5.71048 29.2506 5.71306L28.6197 4.13431C27.6352 1.67065 25.2862 0.0787354 22.6354 0.0787354H18.5274L20.2105 5.69448C22.5241 5.69448 24.2209 5.69402 25.4699 5.69368H25.4719L25.4749 5.69368ZM7.88199 5.69448L9.00416 0.0788214H3.43885C2.87501 0.0788214 2.37666 0.445617 2.20848 0.984284C1.62396 2.8566 1.19688 4.22385 0.884665 5.22338L0.884593 5.22361L0.737488 5.69456H7.88199V5.69448ZM15.8358 0.0788214L17.5188 5.69448H10.5113L11.6332 0.0788214H15.8358ZM7.64979 12.5828V8.27504H0.00383984C-0.000847145 8.59625 -0.000518878 9.37756 0.000322982 11.3813L0.000488281 11.7777H1.46237C2.17428 11.7777 2.75143 12.3554 2.75143 13.068C2.75143 13.7806 2.17428 14.3583 1.46237 14.3583H0.00126172L0.00143359 15.9927C0.00143359 18.0515 1.61543 19.7394 3.64338 19.8566C3.3609 16.7743 5.00497 13.9355 7.64979 12.5828ZM41.2528 13.0056C41.2179 13.7466 41.8078 14.3583 42.5404 14.3583H43.9858C43.8223 16.5831 42.416 18.551 40.3861 19.4081C40.5162 15.1965 37.1305 11.7777 33.0013 11.7777C28.6852 11.7777 25.2396 15.4959 25.6438 19.8637H18.3588C18.7895 15.2086 14.8559 11.3328 10.2278 11.8181V8.27504H17.9622V9.7374C17.9622 10.4707 18.5733 11.0612 19.3136 11.0263C20.0069 10.9936 20.5403 10.3957 20.5403 9.70093V8.27504H28.841L41.8973 8.99117C42.4391 9.02093 42.9044 9.38764 43.0611 9.90764L43.2565 10.556L43.2577 10.5598C43.4206 11.1 43.538 11.4894 43.6239 11.7777H42.5768C41.8827 11.7777 41.2855 12.3116 41.2528 13.0056ZM32.2993 23.9409C34.4621 24.2587 36.5448 23.0809 37.4113 21.1015C38.8002 17.9247 36.459 14.3583 33.0014 14.3583C30.0862 14.3583 27.8205 16.9486 28.2389 19.8637C28.539 21.9534 30.1921 23.6316 32.2993 23.9409ZM6.23878 19.8637C5.81932 16.9402 8.09563 14.3583 11.0013 14.3583C13.9188 14.3583 16.1819 16.9509 15.764 19.8636C15.5229 21.5414 14.4017 22.9926 12.8017 23.6417C10.9653 24.3866 8.8646 23.9242 7.50163 22.4769C6.48489 21.3973 6.30385 20.2505 6.25533 19.9432C6.24719 19.8916 6.24278 19.8637 6.23878 19.8637Z" fill="#26B5C0"/>
</svg>
